<mxfile host="app.diagrams.net" modified="2024-09-19T01:34:37.041Z" agent="Mozilla/5.0 (Windows NT 10.0; Win64; x64) AppleWebKit/537.36 (KHTML, like Gecko) Chrome/128.0.0.0 Safari/537.36" etag="SordttQWM-OlF7XxsqLn" version="24.2.3" type="device">
  <diagram id="R2lEEEUBdFMjLlhIrx00" name="Page-1">
    <mxGraphModel dx="1000" dy="1630" grid="1" gridSize="10" guides="1" tooltips="1" connect="1" arrows="1" fold="1" page="1" pageScale="1" pageWidth="850" pageHeight="1100" math="0" shadow="0" extFonts="Permanent Marker^https://fonts.googleapis.com/css?family=Permanent+Marker">
      <root>
        <mxCell id="0" />
        <mxCell id="1" parent="0" />
        <mxCell id="fJw8JllboJEjV88OS5Zg-21" value="1" style="edgeStyle=orthogonalEdgeStyle;rounded=0;orthogonalLoop=1;jettySize=auto;html=1;exitX=1;exitY=0.5;exitDx=0;exitDy=0;entryX=0;entryY=0.5;entryDx=0;entryDy=0;endArrow=none;endFill=0;" edge="1" parent="1" source="fJw8JllboJEjV88OS5Zg-3" target="fJw8JllboJEjV88OS5Zg-20">
          <mxGeometry relative="1" as="geometry" />
        </mxCell>
        <mxCell id="fJw8JllboJEjV88OS5Zg-57" value="1" style="edgeStyle=orthogonalEdgeStyle;rounded=0;orthogonalLoop=1;jettySize=auto;html=1;exitX=0.5;exitY=1;exitDx=0;exitDy=0;entryX=0.5;entryY=0;entryDx=0;entryDy=0;endArrow=none;endFill=0;" edge="1" parent="1" source="fJw8JllboJEjV88OS5Zg-3" target="fJw8JllboJEjV88OS5Zg-52">
          <mxGeometry relative="1" as="geometry" />
        </mxCell>
        <mxCell id="fJw8JllboJEjV88OS5Zg-62" value="1" style="edgeStyle=orthogonalEdgeStyle;rounded=0;orthogonalLoop=1;jettySize=auto;html=1;exitX=0.5;exitY=0;exitDx=0;exitDy=0;entryX=0.5;entryY=1;entryDx=0;entryDy=0;endArrow=none;endFill=0;" edge="1" parent="1" source="fJw8JllboJEjV88OS5Zg-3" target="fJw8JllboJEjV88OS5Zg-60">
          <mxGeometry relative="1" as="geometry" />
        </mxCell>
        <object label="User" User="" id="fJw8JllboJEjV88OS5Zg-3">
          <mxCell style="rounded=0;whiteSpace=wrap;html=1;fillColor=#f8cecc;strokeColor=#b85450;" vertex="1" parent="1">
            <mxGeometry x="560" y="210" width="120" height="60" as="geometry" />
          </mxCell>
        </object>
        <mxCell id="fJw8JllboJEjV88OS5Zg-98" style="edgeStyle=orthogonalEdgeStyle;rounded=0;orthogonalLoop=1;jettySize=auto;html=1;exitX=1;exitY=0.5;exitDx=0;exitDy=0;entryX=0;entryY=0.5;entryDx=0;entryDy=0;" edge="1" parent="1" source="fJw8JllboJEjV88OS5Zg-4" target="fJw8JllboJEjV88OS5Zg-3">
          <mxGeometry relative="1" as="geometry" />
        </mxCell>
        <mxCell id="fJw8JllboJEjV88OS5Zg-4" value="UserName" style="ellipse;whiteSpace=wrap;html=1;fillColor=#d5e8d4;strokeColor=#82b366;" vertex="1" parent="1">
          <mxGeometry x="240" y="90" width="120" height="80" as="geometry" />
        </mxCell>
        <mxCell id="fJw8JllboJEjV88OS5Zg-97" style="edgeStyle=orthogonalEdgeStyle;rounded=0;orthogonalLoop=1;jettySize=auto;html=1;exitX=1;exitY=0.5;exitDx=0;exitDy=0;" edge="1" parent="1" source="fJw8JllboJEjV88OS5Zg-5" target="fJw8JllboJEjV88OS5Zg-3">
          <mxGeometry relative="1" as="geometry" />
        </mxCell>
        <mxCell id="fJw8JllboJEjV88OS5Zg-5" value="UserPassword" style="ellipse;whiteSpace=wrap;html=1;fillColor=#d5e8d4;strokeColor=#82b366;" vertex="1" parent="1">
          <mxGeometry x="240" y="200" width="120" height="80" as="geometry" />
        </mxCell>
        <mxCell id="fJw8JllboJEjV88OS5Zg-95" style="edgeStyle=orthogonalEdgeStyle;rounded=0;orthogonalLoop=1;jettySize=auto;html=1;exitX=1;exitY=0.5;exitDx=0;exitDy=0;entryX=0;entryY=0.5;entryDx=0;entryDy=0;" edge="1" parent="1" source="fJw8JllboJEjV88OS5Zg-6" target="fJw8JllboJEjV88OS5Zg-3">
          <mxGeometry relative="1" as="geometry" />
        </mxCell>
        <mxCell id="fJw8JllboJEjV88OS5Zg-6" value="Join Date" style="ellipse;whiteSpace=wrap;html=1;fillColor=#d5e8d4;strokeColor=#82b366;" vertex="1" parent="1">
          <mxGeometry x="240" y="310" width="120" height="80" as="geometry" />
        </mxCell>
        <mxCell id="fJw8JllboJEjV88OS5Zg-96" style="edgeStyle=orthogonalEdgeStyle;rounded=0;orthogonalLoop=1;jettySize=auto;html=1;exitX=1;exitY=0.5;exitDx=0;exitDy=0;entryX=0;entryY=0.5;entryDx=0;entryDy=0;" edge="1" parent="1" source="fJw8JllboJEjV88OS5Zg-7" target="fJw8JllboJEjV88OS5Zg-3">
          <mxGeometry relative="1" as="geometry" />
        </mxCell>
        <mxCell id="fJw8JllboJEjV88OS5Zg-7" value="Status" style="ellipse;whiteSpace=wrap;html=1;shadow=0;strokeColor=#82b366;perimeterSpacing=0;fillColor=#d5e8d4;" vertex="1" parent="1">
          <mxGeometry x="240" y="420" width="120" height="80" as="geometry" />
        </mxCell>
        <mxCell id="fJw8JllboJEjV88OS5Zg-99" style="edgeStyle=orthogonalEdgeStyle;rounded=0;orthogonalLoop=1;jettySize=auto;html=1;exitX=1;exitY=0.5;exitDx=0;exitDy=0;entryX=0;entryY=0.5;entryDx=0;entryDy=0;" edge="1" parent="1" source="fJw8JllboJEjV88OS5Zg-14" target="fJw8JllboJEjV88OS5Zg-3">
          <mxGeometry relative="1" as="geometry" />
        </mxCell>
        <mxCell id="fJw8JllboJEjV88OS5Zg-14" value="ID" style="ellipse;whiteSpace=wrap;html=1;fillColor=#d5e8d4;strokeColor=#82b366;" vertex="1" parent="1">
          <mxGeometry x="240" y="-20" width="120" height="80" as="geometry" />
        </mxCell>
        <mxCell id="fJw8JllboJEjV88OS5Zg-23" value="M" style="edgeStyle=orthogonalEdgeStyle;rounded=0;orthogonalLoop=1;jettySize=auto;html=1;exitX=1;exitY=0.5;exitDx=0;exitDy=0;entryX=0;entryY=0.5;entryDx=0;entryDy=0;endArrow=none;endFill=0;" edge="1" parent="1" source="fJw8JllboJEjV88OS5Zg-20" target="fJw8JllboJEjV88OS5Zg-22">
          <mxGeometry relative="1" as="geometry">
            <Array as="points">
              <mxPoint x="890" y="240" />
              <mxPoint x="890" y="240" />
            </Array>
          </mxGeometry>
        </mxCell>
        <mxCell id="fJw8JllboJEjV88OS5Zg-20" value="Has" style="rhombus;whiteSpace=wrap;html=1;" vertex="1" parent="1">
          <mxGeometry x="760" y="200" width="80" height="80" as="geometry" />
        </mxCell>
        <mxCell id="fJw8JllboJEjV88OS5Zg-32" value="M" style="edgeStyle=orthogonalEdgeStyle;rounded=0;orthogonalLoop=1;jettySize=auto;html=1;entryX=0.5;entryY=0;entryDx=0;entryDy=0;endArrow=none;endFill=0;" edge="1" parent="1" source="fJw8JllboJEjV88OS5Zg-34" target="fJw8JllboJEjV88OS5Zg-31">
          <mxGeometry relative="1" as="geometry" />
        </mxCell>
        <mxCell id="fJw8JllboJEjV88OS5Zg-48" value="1" style="edgeStyle=orthogonalEdgeStyle;rounded=0;orthogonalLoop=1;jettySize=auto;html=1;endArrow=none;endFill=0;exitX=0.75;exitY=0;exitDx=0;exitDy=0;" edge="1" parent="1" source="fJw8JllboJEjV88OS5Zg-22" target="fJw8JllboJEjV88OS5Zg-47">
          <mxGeometry relative="1" as="geometry" />
        </mxCell>
        <mxCell id="fJw8JllboJEjV88OS5Zg-89" value="1" style="edgeStyle=orthogonalEdgeStyle;rounded=0;orthogonalLoop=1;jettySize=auto;html=1;exitX=0.25;exitY=0;exitDx=0;exitDy=0;entryX=0.5;entryY=1;entryDx=0;entryDy=0;endArrow=none;endFill=0;" edge="1" parent="1" source="fJw8JllboJEjV88OS5Zg-22" target="fJw8JllboJEjV88OS5Zg-88">
          <mxGeometry relative="1" as="geometry" />
        </mxCell>
        <mxCell id="fJw8JllboJEjV88OS5Zg-123" value="1" style="edgeStyle=orthogonalEdgeStyle;rounded=0;orthogonalLoop=1;jettySize=auto;html=1;exitX=0.25;exitY=1;exitDx=0;exitDy=0;entryX=0.5;entryY=0;entryDx=0;entryDy=0;endArrow=none;endFill=0;" edge="1" parent="1" source="fJw8JllboJEjV88OS5Zg-22" target="fJw8JllboJEjV88OS5Zg-122">
          <mxGeometry relative="1" as="geometry" />
        </mxCell>
        <mxCell id="fJw8JllboJEjV88OS5Zg-22" value="Posts" style="rounded=0;whiteSpace=wrap;html=1;fillColor=#f8cecc;strokeColor=#b85450;" vertex="1" parent="1">
          <mxGeometry x="870" y="210" width="120" height="60" as="geometry" />
        </mxCell>
        <mxCell id="fJw8JllboJEjV88OS5Zg-42" style="edgeStyle=orthogonalEdgeStyle;rounded=0;orthogonalLoop=1;jettySize=auto;html=1;exitX=0;exitY=0.5;exitDx=0;exitDy=0;" edge="1" parent="1" source="fJw8JllboJEjV88OS5Zg-25" target="fJw8JllboJEjV88OS5Zg-22">
          <mxGeometry relative="1" as="geometry" />
        </mxCell>
        <mxCell id="fJw8JllboJEjV88OS5Zg-25" value="Post_Text" style="ellipse;whiteSpace=wrap;html=1;fillColor=#d5e8d4;strokeColor=#82b366;" vertex="1" parent="1">
          <mxGeometry x="1170" y="150" width="120" height="80" as="geometry" />
        </mxCell>
        <mxCell id="fJw8JllboJEjV88OS5Zg-45" style="edgeStyle=orthogonalEdgeStyle;rounded=0;orthogonalLoop=1;jettySize=auto;html=1;exitX=0;exitY=0.5;exitDx=0;exitDy=0;entryX=1;entryY=0.5;entryDx=0;entryDy=0;" edge="1" parent="1" source="fJw8JllboJEjV88OS5Zg-26" target="fJw8JllboJEjV88OS5Zg-22">
          <mxGeometry relative="1" as="geometry" />
        </mxCell>
        <mxCell id="fJw8JllboJEjV88OS5Zg-26" value="Post_ID" style="ellipse;whiteSpace=wrap;html=1;fillColor=#d5e8d4;strokeColor=#82b366;" vertex="1" parent="1">
          <mxGeometry x="1170" y="50" width="120" height="80" as="geometry" />
        </mxCell>
        <mxCell id="fJw8JllboJEjV88OS5Zg-44" style="edgeStyle=orthogonalEdgeStyle;rounded=0;orthogonalLoop=1;jettySize=auto;html=1;exitX=0;exitY=0.5;exitDx=0;exitDy=0;entryX=1;entryY=0.5;entryDx=0;entryDy=0;" edge="1" parent="1" source="fJw8JllboJEjV88OS5Zg-27" target="fJw8JllboJEjV88OS5Zg-22">
          <mxGeometry relative="1" as="geometry" />
        </mxCell>
        <mxCell id="fJw8JllboJEjV88OS5Zg-27" value="Post_Image" style="ellipse;whiteSpace=wrap;html=1;fillColor=#d5e8d4;strokeColor=#82b366;" vertex="1" parent="1">
          <mxGeometry x="1170" y="250" width="120" height="80" as="geometry" />
        </mxCell>
        <mxCell id="fJw8JllboJEjV88OS5Zg-39" style="edgeStyle=orthogonalEdgeStyle;rounded=0;orthogonalLoop=1;jettySize=auto;html=1;exitX=0.5;exitY=0;exitDx=0;exitDy=0;" edge="1" parent="1" source="fJw8JllboJEjV88OS5Zg-28" target="fJw8JllboJEjV88OS5Zg-31">
          <mxGeometry relative="1" as="geometry" />
        </mxCell>
        <mxCell id="fJw8JllboJEjV88OS5Zg-28" value="Likes" style="ellipse;whiteSpace=wrap;html=1;fillColor=#d5e8d4;strokeColor=#82b366;" vertex="1" parent="1">
          <mxGeometry x="1075" y="640" width="120" height="80" as="geometry" />
        </mxCell>
        <mxCell id="fJw8JllboJEjV88OS5Zg-46" style="edgeStyle=orthogonalEdgeStyle;rounded=0;orthogonalLoop=1;jettySize=auto;html=1;exitX=0;exitY=0.5;exitDx=0;exitDy=0;entryX=1;entryY=0.5;entryDx=0;entryDy=0;" edge="1" parent="1" source="fJw8JllboJEjV88OS5Zg-30" target="fJw8JllboJEjV88OS5Zg-22">
          <mxGeometry relative="1" as="geometry" />
        </mxCell>
        <mxCell id="fJw8JllboJEjV88OS5Zg-30" value="Date" style="ellipse;whiteSpace=wrap;html=1;fillColor=#d5e8d4;strokeColor=#82b366;" vertex="1" parent="1">
          <mxGeometry x="1170" y="350" width="120" height="80" as="geometry" />
        </mxCell>
        <mxCell id="fJw8JllboJEjV88OS5Zg-31" value="Interactions" style="rounded=0;whiteSpace=wrap;html=1;fillColor=#f8cecc;strokeColor=#b85450;" vertex="1" parent="1">
          <mxGeometry x="1190" y="520" width="120" height="60" as="geometry" />
        </mxCell>
        <mxCell id="fJw8JllboJEjV88OS5Zg-121" value="1" style="edgeStyle=orthogonalEdgeStyle;rounded=0;orthogonalLoop=1;jettySize=auto;html=1;exitX=0.5;exitY=0;exitDx=0;exitDy=0;entryX=0.75;entryY=1;entryDx=0;entryDy=0;" edge="1" parent="1" source="fJw8JllboJEjV88OS5Zg-34" target="fJw8JllboJEjV88OS5Zg-22">
          <mxGeometry relative="1" as="geometry" />
        </mxCell>
        <mxCell id="fJw8JllboJEjV88OS5Zg-34" value="Has" style="rhombus;whiteSpace=wrap;html=1;" vertex="1" parent="1">
          <mxGeometry x="1010" y="410" width="80" height="80" as="geometry" />
        </mxCell>
        <mxCell id="fJw8JllboJEjV88OS5Zg-38" style="edgeStyle=orthogonalEdgeStyle;rounded=0;orthogonalLoop=1;jettySize=auto;html=1;exitX=0.5;exitY=0;exitDx=0;exitDy=0;" edge="1" parent="1" source="fJw8JllboJEjV88OS5Zg-35" target="fJw8JllboJEjV88OS5Zg-31">
          <mxGeometry relative="1" as="geometry" />
        </mxCell>
        <mxCell id="fJw8JllboJEjV88OS5Zg-35" value="Dislikes" style="ellipse;whiteSpace=wrap;html=1;fillColor=#d5e8d4;strokeColor=#82b366;" vertex="1" parent="1">
          <mxGeometry x="1305" y="640" width="120" height="80" as="geometry" />
        </mxCell>
        <mxCell id="fJw8JllboJEjV88OS5Zg-49" value="M" style="edgeStyle=orthogonalEdgeStyle;rounded=0;orthogonalLoop=1;jettySize=auto;html=1;exitX=0.5;exitY=0;exitDx=0;exitDy=0;endArrow=none;endFill=0;" edge="1" parent="1" source="fJw8JllboJEjV88OS5Zg-47" target="fJw8JllboJEjV88OS5Zg-50">
          <mxGeometry relative="1" as="geometry">
            <mxPoint x="989.7647058823529" y="-10" as="targetPoint" />
          </mxGeometry>
        </mxCell>
        <mxCell id="fJw8JllboJEjV88OS5Zg-47" value="Has" style="rhombus;whiteSpace=wrap;html=1;rounded=0;" vertex="1" parent="1">
          <mxGeometry x="980" y="80" width="80" height="80" as="geometry" />
        </mxCell>
        <mxCell id="fJw8JllboJEjV88OS5Zg-107" style="edgeStyle=orthogonalEdgeStyle;rounded=0;orthogonalLoop=1;jettySize=auto;html=1;exitX=0.75;exitY=0;exitDx=0;exitDy=0;entryX=0;entryY=0.5;entryDx=0;entryDy=0;endArrow=none;endFill=0;dashed=1;" edge="1" parent="1" source="fJw8JllboJEjV88OS5Zg-50" target="fJw8JllboJEjV88OS5Zg-103">
          <mxGeometry relative="1" as="geometry" />
        </mxCell>
        <mxCell id="fJw8JllboJEjV88OS5Zg-50" value="Comments" style="rounded=0;whiteSpace=wrap;html=1;fillColor=#f8cecc;strokeColor=#b85450;" vertex="1" parent="1">
          <mxGeometry x="1090.004705882353" y="-127" width="120" height="60" as="geometry" />
        </mxCell>
        <mxCell id="fJw8JllboJEjV88OS5Zg-56" style="edgeStyle=orthogonalEdgeStyle;rounded=0;orthogonalLoop=1;jettySize=auto;html=1;exitX=0.5;exitY=1;exitDx=0;exitDy=0;entryX=0.5;entryY=0;entryDx=0;entryDy=0;endArrow=none;endFill=0;" edge="1" parent="1" source="fJw8JllboJEjV88OS5Zg-51" target="fJw8JllboJEjV88OS5Zg-55">
          <mxGeometry relative="1" as="geometry" />
        </mxCell>
        <mxCell id="fJw8JllboJEjV88OS5Zg-51" value="Account Settings" style="rounded=0;whiteSpace=wrap;html=1;fillColor=#f8cecc;strokeColor=#b85450;" vertex="1" parent="1">
          <mxGeometry x="460" y="490" width="120" height="60" as="geometry" />
        </mxCell>
        <mxCell id="fJw8JllboJEjV88OS5Zg-54" value="1" style="edgeStyle=orthogonalEdgeStyle;rounded=0;orthogonalLoop=1;jettySize=auto;html=1;exitX=0.5;exitY=1;exitDx=0;exitDy=0;entryX=0.5;entryY=0;entryDx=0;entryDy=0;endArrow=none;endFill=0;" edge="1" parent="1" source="fJw8JllboJEjV88OS5Zg-52" target="fJw8JllboJEjV88OS5Zg-51">
          <mxGeometry relative="1" as="geometry" />
        </mxCell>
        <mxCell id="fJw8JllboJEjV88OS5Zg-52" value="Has" style="rhombus;whiteSpace=wrap;html=1;" vertex="1" parent="1">
          <mxGeometry x="490" y="370" width="60" height="60" as="geometry" />
        </mxCell>
        <mxCell id="fJw8JllboJEjV88OS5Zg-55" value="Privacy" style="ellipse;whiteSpace=wrap;html=1;fillColor=#d5e8d4;strokeColor=#82b366;" vertex="1" parent="1">
          <mxGeometry x="460" y="590" width="120" height="80" as="geometry" />
        </mxCell>
        <mxCell id="fJw8JllboJEjV88OS5Zg-58" value="Member" style="rounded=0;whiteSpace=wrap;html=1;fillColor=#f8cecc;strokeColor=#b85450;" vertex="1" parent="1">
          <mxGeometry x="560" y="-180" width="120" height="60" as="geometry" />
        </mxCell>
        <mxCell id="fJw8JllboJEjV88OS5Zg-61" value="M" style="edgeStyle=orthogonalEdgeStyle;rounded=0;orthogonalLoop=1;jettySize=auto;html=1;exitX=0.5;exitY=0;exitDx=0;exitDy=0;entryX=0.5;entryY=1;entryDx=0;entryDy=0;endArrow=none;endFill=0;" edge="1" parent="1" source="fJw8JllboJEjV88OS5Zg-60" target="fJw8JllboJEjV88OS5Zg-58">
          <mxGeometry relative="1" as="geometry" />
        </mxCell>
        <mxCell id="fJw8JllboJEjV88OS5Zg-60" value="Is" style="rhombus;whiteSpace=wrap;html=1;" vertex="1" parent="1">
          <mxGeometry x="580" width="80" height="80" as="geometry" />
        </mxCell>
        <mxCell id="fJw8JllboJEjV88OS5Zg-73" style="edgeStyle=orthogonalEdgeStyle;rounded=0;orthogonalLoop=1;jettySize=auto;html=1;exitX=0.5;exitY=1;exitDx=0;exitDy=0;entryX=0.5;entryY=0;entryDx=0;entryDy=0;" edge="1" parent="1" source="fJw8JllboJEjV88OS5Zg-63" target="fJw8JllboJEjV88OS5Zg-64">
          <mxGeometry relative="1" as="geometry" />
        </mxCell>
        <mxCell id="fJw8JllboJEjV88OS5Zg-63" value="Community_name" style="ellipse;whiteSpace=wrap;html=1;fillColor=#d5e8d4;strokeColor=#82b366;" vertex="1" parent="1">
          <mxGeometry x="425" y="-640" width="120" height="80" as="geometry" />
        </mxCell>
        <mxCell id="fJw8JllboJEjV88OS5Zg-115" value="1" style="edgeStyle=orthogonalEdgeStyle;rounded=0;orthogonalLoop=1;jettySize=auto;html=1;endArrow=none;endFill=0;" edge="1" parent="1" source="fJw8JllboJEjV88OS5Zg-64" target="fJw8JllboJEjV88OS5Zg-114">
          <mxGeometry relative="1" as="geometry" />
        </mxCell>
        <mxCell id="fJw8JllboJEjV88OS5Zg-64" value="Community" style="rounded=0;whiteSpace=wrap;html=1;fillColor=#f8cecc;strokeColor=#b85450;" vertex="1" parent="1">
          <mxGeometry x="560" y="-470" width="120" height="60" as="geometry" />
        </mxCell>
        <mxCell id="fJw8JllboJEjV88OS5Zg-67" value="M" style="edgeStyle=orthogonalEdgeStyle;rounded=0;orthogonalLoop=1;jettySize=auto;html=1;exitX=0.5;exitY=0;exitDx=0;exitDy=0;entryX=0.5;entryY=1;entryDx=0;entryDy=0;endArrow=none;endFill=0;" edge="1" parent="1" source="fJw8JllboJEjV88OS5Zg-65" target="fJw8JllboJEjV88OS5Zg-64">
          <mxGeometry relative="1" as="geometry" />
        </mxCell>
        <mxCell id="fJw8JllboJEjV88OS5Zg-113" value="1" style="edgeStyle=orthogonalEdgeStyle;rounded=0;orthogonalLoop=1;jettySize=auto;html=1;exitX=0.5;exitY=1;exitDx=0;exitDy=0;entryX=0.5;entryY=0;entryDx=0;entryDy=0;endArrow=none;endFill=0;" edge="1" parent="1" source="fJw8JllboJEjV88OS5Zg-65" target="fJw8JllboJEjV88OS5Zg-58">
          <mxGeometry relative="1" as="geometry" />
        </mxCell>
        <mxCell id="fJw8JllboJEjV88OS5Zg-65" value="In" style="rhombus;whiteSpace=wrap;html=1;" vertex="1" parent="1">
          <mxGeometry x="580" y="-350" width="80" height="80" as="geometry" />
        </mxCell>
        <mxCell id="fJw8JllboJEjV88OS5Zg-74" style="edgeStyle=orthogonalEdgeStyle;rounded=0;orthogonalLoop=1;jettySize=auto;html=1;exitX=0.5;exitY=1;exitDx=0;exitDy=0;" edge="1" parent="1" source="fJw8JllboJEjV88OS5Zg-69" target="fJw8JllboJEjV88OS5Zg-64">
          <mxGeometry relative="1" as="geometry" />
        </mxCell>
        <mxCell id="fJw8JllboJEjV88OS5Zg-69" value="Community_&lt;div&gt;Description&lt;/div&gt;" style="ellipse;whiteSpace=wrap;html=1;fillColor=#d5e8d4;strokeColor=#82b366;" vertex="1" parent="1">
          <mxGeometry x="560" y="-640" width="120" height="80" as="geometry" />
        </mxCell>
        <mxCell id="fJw8JllboJEjV88OS5Zg-71" style="edgeStyle=orthogonalEdgeStyle;rounded=0;orthogonalLoop=1;jettySize=auto;html=1;exitX=1;exitY=0.5;exitDx=0;exitDy=0;" edge="1" parent="1" source="fJw8JllboJEjV88OS5Zg-70" target="fJw8JllboJEjV88OS5Zg-58">
          <mxGeometry relative="1" as="geometry" />
        </mxCell>
        <mxCell id="fJw8JllboJEjV88OS5Zg-70" value="JoinDate" style="ellipse;whiteSpace=wrap;html=1;fillColor=#d5e8d4;strokeColor=#82b366;" vertex="1" parent="1">
          <mxGeometry x="365" y="-190" width="120" height="80" as="geometry" />
        </mxCell>
        <mxCell id="fJw8JllboJEjV88OS5Zg-75" style="edgeStyle=orthogonalEdgeStyle;rounded=0;orthogonalLoop=1;jettySize=auto;html=1;exitX=0.5;exitY=1;exitDx=0;exitDy=0;" edge="1" parent="1" source="fJw8JllboJEjV88OS5Zg-72" target="fJw8JllboJEjV88OS5Zg-64">
          <mxGeometry relative="1" as="geometry" />
        </mxCell>
        <mxCell id="fJw8JllboJEjV88OS5Zg-72" value="Creation Date" style="ellipse;whiteSpace=wrap;html=1;fillColor=#d5e8d4;strokeColor=#82b366;" vertex="1" parent="1">
          <mxGeometry x="700" y="-640" width="120" height="80" as="geometry" />
        </mxCell>
        <mxCell id="fJw8JllboJEjV88OS5Zg-85" style="edgeStyle=orthogonalEdgeStyle;rounded=0;orthogonalLoop=1;jettySize=auto;html=1;exitX=1;exitY=0.5;exitDx=0;exitDy=0;entryX=0;entryY=0.5;entryDx=0;entryDy=0;" edge="1" parent="1" source="fJw8JllboJEjV88OS5Zg-81" target="fJw8JllboJEjV88OS5Zg-82">
          <mxGeometry relative="1" as="geometry" />
        </mxCell>
        <mxCell id="fJw8JllboJEjV88OS5Zg-86" style="edgeStyle=orthogonalEdgeStyle;rounded=0;orthogonalLoop=1;jettySize=auto;html=1;exitX=1;exitY=0.5;exitDx=0;exitDy=0;" edge="1" parent="1" source="fJw8JllboJEjV88OS5Zg-81" target="fJw8JllboJEjV88OS5Zg-83">
          <mxGeometry relative="1" as="geometry" />
        </mxCell>
        <mxCell id="fJw8JllboJEjV88OS5Zg-87" style="edgeStyle=orthogonalEdgeStyle;rounded=0;orthogonalLoop=1;jettySize=auto;html=1;exitX=1;exitY=0.5;exitDx=0;exitDy=0;entryX=0;entryY=0.5;entryDx=0;entryDy=0;" edge="1" parent="1" source="fJw8JllboJEjV88OS5Zg-81" target="fJw8JllboJEjV88OS5Zg-84">
          <mxGeometry relative="1" as="geometry" />
        </mxCell>
        <mxCell id="fJw8JllboJEjV88OS5Zg-81" value="Community_Post" style="rounded=0;whiteSpace=wrap;html=1;fillColor=#f8cecc;strokeColor=#b85450;" vertex="1" parent="1">
          <mxGeometry x="910" y="-470" width="120" height="60" as="geometry" />
        </mxCell>
        <mxCell id="fJw8JllboJEjV88OS5Zg-82" value="MemberID" style="ellipse;whiteSpace=wrap;html=1;fillColor=#d5e8d4;strokeColor=#82b366;" vertex="1" parent="1">
          <mxGeometry x="1140" y="-580" width="120" height="80" as="geometry" />
        </mxCell>
        <mxCell id="fJw8JllboJEjV88OS5Zg-83" value="CommunityID" style="ellipse;whiteSpace=wrap;html=1;fillColor=#d5e8d4;strokeColor=#82b366;" vertex="1" parent="1">
          <mxGeometry x="1140" y="-480" width="120" height="80" as="geometry" />
        </mxCell>
        <mxCell id="fJw8JllboJEjV88OS5Zg-84" value="PostID" style="ellipse;whiteSpace=wrap;html=1;fillColor=#d5e8d4;strokeColor=#82b366;" vertex="1" parent="1">
          <mxGeometry x="1140" y="-380" width="120" height="80" as="geometry" />
        </mxCell>
        <mxCell id="fJw8JllboJEjV88OS5Zg-90" value="1" style="edgeStyle=orthogonalEdgeStyle;rounded=0;orthogonalLoop=1;jettySize=auto;html=1;exitX=0.5;exitY=0;exitDx=0;exitDy=0;entryX=0.5;entryY=1;entryDx=0;entryDy=0;endArrow=none;endFill=0;" edge="1" parent="1" source="fJw8JllboJEjV88OS5Zg-88" target="fJw8JllboJEjV88OS5Zg-81">
          <mxGeometry relative="1" as="geometry" />
        </mxCell>
        <mxCell id="fJw8JllboJEjV88OS5Zg-88" value="Can Be" style="rhombus;whiteSpace=wrap;html=1;" vertex="1" parent="1">
          <mxGeometry x="860" y="-120" width="80" height="80" as="geometry" />
        </mxCell>
        <mxCell id="fJw8JllboJEjV88OS5Zg-94" style="edgeStyle=orthogonalEdgeStyle;rounded=0;orthogonalLoop=1;jettySize=auto;html=1;exitX=0;exitY=0.5;exitDx=0;exitDy=0;entryX=1;entryY=0.5;entryDx=0;entryDy=0;" edge="1" parent="1" source="fJw8JllboJEjV88OS5Zg-91" target="fJw8JllboJEjV88OS5Zg-50">
          <mxGeometry relative="1" as="geometry" />
        </mxCell>
        <mxCell id="fJw8JllboJEjV88OS5Zg-91" value="Comment_Text" style="ellipse;whiteSpace=wrap;html=1;fillColor=#d5e8d4;strokeColor=#82b366;" vertex="1" parent="1">
          <mxGeometry x="1470" y="-137" width="120" height="80" as="geometry" />
        </mxCell>
        <mxCell id="fJw8JllboJEjV88OS5Zg-93" style="edgeStyle=orthogonalEdgeStyle;rounded=0;orthogonalLoop=1;jettySize=auto;html=1;exitX=0;exitY=0.5;exitDx=0;exitDy=0;entryX=1;entryY=0.5;entryDx=0;entryDy=0;" edge="1" parent="1" source="fJw8JllboJEjV88OS5Zg-92" target="fJw8JllboJEjV88OS5Zg-50">
          <mxGeometry relative="1" as="geometry" />
        </mxCell>
        <mxCell id="fJw8JllboJEjV88OS5Zg-92" value="Comment_Date" style="ellipse;whiteSpace=wrap;html=1;fillColor=#d5e8d4;strokeColor=#82b366;" vertex="1" parent="1">
          <mxGeometry x="1470" y="-50" width="120" height="80" as="geometry" />
        </mxCell>
        <mxCell id="fJw8JllboJEjV88OS5Zg-103" value="Post ID" style="ellipse;whiteSpace=wrap;html=1;dashed=1;fillColor=#d5e8d4;strokeColor=#82b366;" vertex="1" parent="1">
          <mxGeometry x="1470" y="-223" width="120" height="80" as="geometry" />
        </mxCell>
        <mxCell id="fJw8JllboJEjV88OS5Zg-109" style="edgeStyle=orthogonalEdgeStyle;rounded=0;orthogonalLoop=1;jettySize=auto;html=1;exitX=0;exitY=0.5;exitDx=0;exitDy=0;entryX=0.75;entryY=0;entryDx=0;entryDy=0;endArrow=none;endFill=0;dashed=1;" edge="1" parent="1" source="fJw8JllboJEjV88OS5Zg-105" target="fJw8JllboJEjV88OS5Zg-50">
          <mxGeometry relative="1" as="geometry" />
        </mxCell>
        <mxCell id="fJw8JllboJEjV88OS5Zg-105" value="User ID" style="ellipse;whiteSpace=wrap;html=1;dashed=1;fillColor=#d5e8d4;strokeColor=#82b366;" vertex="1" parent="1">
          <mxGeometry x="1470" y="-310" width="120" height="80" as="geometry" />
        </mxCell>
        <mxCell id="fJw8JllboJEjV88OS5Zg-116" value="M" style="edgeStyle=orthogonalEdgeStyle;rounded=0;orthogonalLoop=1;jettySize=auto;html=1;endArrow=none;endFill=0;" edge="1" parent="1" source="fJw8JllboJEjV88OS5Zg-114" target="fJw8JllboJEjV88OS5Zg-81">
          <mxGeometry relative="1" as="geometry" />
        </mxCell>
        <mxCell id="fJw8JllboJEjV88OS5Zg-114" value="Has" style="rhombus;whiteSpace=wrap;html=1;rounded=0;" vertex="1" parent="1">
          <mxGeometry x="760" y="-480" width="80" height="80" as="geometry" />
        </mxCell>
        <mxCell id="fJw8JllboJEjV88OS5Zg-125" value="M" style="edgeStyle=orthogonalEdgeStyle;rounded=0;orthogonalLoop=1;jettySize=auto;html=1;exitX=0.5;exitY=1;exitDx=0;exitDy=0;entryX=0.5;entryY=0;entryDx=0;entryDy=0;endArrow=none;endFill=0;" edge="1" parent="1" source="fJw8JllboJEjV88OS5Zg-122" target="fJw8JllboJEjV88OS5Zg-124">
          <mxGeometry relative="1" as="geometry" />
        </mxCell>
        <mxCell id="fJw8JllboJEjV88OS5Zg-122" value="Can Be" style="rhombus;whiteSpace=wrap;html=1;" vertex="1" parent="1">
          <mxGeometry x="860" y="350" width="80" height="80" as="geometry" />
        </mxCell>
        <mxCell id="fJw8JllboJEjV88OS5Zg-124" value="Shared Post" style="rounded=0;whiteSpace=wrap;html=1;fillColor=#f8cecc;strokeColor=#b85450;" vertex="1" parent="1">
          <mxGeometry x="810" y="490" width="120" height="60" as="geometry" />
        </mxCell>
        <mxCell id="fJw8JllboJEjV88OS5Zg-129" style="edgeStyle=orthogonalEdgeStyle;rounded=0;orthogonalLoop=1;jettySize=auto;html=1;exitX=0.5;exitY=0;exitDx=0;exitDy=0;entryX=0.25;entryY=1;entryDx=0;entryDy=0;" edge="1" parent="1" source="fJw8JllboJEjV88OS5Zg-126" target="fJw8JllboJEjV88OS5Zg-124">
          <mxGeometry relative="1" as="geometry" />
        </mxCell>
        <mxCell id="fJw8JllboJEjV88OS5Zg-126" value="SharerID" style="ellipse;whiteSpace=wrap;html=1;dashed=1;fillColor=#d5e8d4;strokeColor=#82b366;" vertex="1" parent="1">
          <mxGeometry x="680" y="640" width="120" height="80" as="geometry" />
        </mxCell>
        <mxCell id="fJw8JllboJEjV88OS5Zg-130" style="edgeStyle=orthogonalEdgeStyle;rounded=0;orthogonalLoop=1;jettySize=auto;html=1;exitX=0.5;exitY=0;exitDx=0;exitDy=0;entryX=0.5;entryY=1;entryDx=0;entryDy=0;" edge="1" parent="1" source="fJw8JllboJEjV88OS5Zg-127" target="fJw8JllboJEjV88OS5Zg-124">
          <mxGeometry relative="1" as="geometry" />
        </mxCell>
        <mxCell id="fJw8JllboJEjV88OS5Zg-127" value="OwnerID" style="ellipse;whiteSpace=wrap;html=1;dashed=1;fillColor=#d5e8d4;strokeColor=#82b366;" vertex="1" parent="1">
          <mxGeometry x="810" y="640" width="120" height="80" as="geometry" />
        </mxCell>
        <mxCell id="fJw8JllboJEjV88OS5Zg-131" style="edgeStyle=orthogonalEdgeStyle;rounded=0;orthogonalLoop=1;jettySize=auto;html=1;exitX=0.5;exitY=0;exitDx=0;exitDy=0;entryX=0.75;entryY=1;entryDx=0;entryDy=0;" edge="1" parent="1" source="fJw8JllboJEjV88OS5Zg-128" target="fJw8JllboJEjV88OS5Zg-124">
          <mxGeometry relative="1" as="geometry" />
        </mxCell>
        <mxCell id="fJw8JllboJEjV88OS5Zg-128" value="PostID" style="ellipse;whiteSpace=wrap;html=1;dashed=1;fillColor=#d5e8d4;strokeColor=#82b366;" vertex="1" parent="1">
          <mxGeometry x="940" y="640" width="120" height="80" as="geometry" />
        </mxCell>
        <mxCell id="fJw8JllboJEjV88OS5Zg-133" style="edgeStyle=orthogonalEdgeStyle;rounded=0;orthogonalLoop=1;jettySize=auto;html=1;exitX=1;exitY=0.5;exitDx=0;exitDy=0;entryX=0;entryY=0.5;entryDx=0;entryDy=0;" edge="1" parent="1" source="fJw8JllboJEjV88OS5Zg-132" target="fJw8JllboJEjV88OS5Zg-124">
          <mxGeometry relative="1" as="geometry" />
        </mxCell>
        <mxCell id="fJw8JllboJEjV88OS5Zg-132" value="Share_Date" style="ellipse;whiteSpace=wrap;html=1;fillColor=#d5e8d4;strokeColor=#82b366;" vertex="1" parent="1">
          <mxGeometry x="620" y="480" width="120" height="80" as="geometry" />
        </mxCell>
      </root>
    </mxGraphModel>
  </diagram>
</mxfile>
